:SAMPLES-PER-SECOND 30
:FULLY-SPECIFIED
:DEGREES
1
root  84.0011 39.3658 1.79091 -104.756 -87.7206 104.608
RightUpLeg  -1.45634 -7.81159 -6.1376
RightLeg  5.99115 12.6618 -0.700331
RightFoot  -4.72523 -0.139039 1.80011
RightToes  -6.40286e-010 0 -3.6325e-017
Spine  11.2626 1.41097 0.308252
Spine1  -21.5694 1.37362 -1.15817
HEad  6.65181 -5.51608 -3.81112
LeftShoulder1  0.753719 -0.0815125 -14.08
LeftArm  -16.3725 6.76665 -4.04908
LeftForeArm  11.7657 -5.14991 -0.820388
LeftHand  -0.0198416 6.54817 1.00089
RightShoulder  0.572796 -0.409069 11.4402
RightArm  0.679639 -1.96587 -1.65329
RightForeArm  2.34349 3.23397 0.32775
RightHand  0.0262204 5.86619 -0.068415
LeftUpLeg  -0.846611 6.40897 2.3021
LeftLeg  2.17934 0.985851 -0.0901788
LeftFoot  -0.988908 0.0462462 -0.404885
LeftToes  1.32783e-010 1.73515e-011 1.59258e-011
2
root  84.0117 39.3669 1.78264 -103.495 -87.6774 103.335
RightUpLeg  -1.38154 -7.81039 -6.16937
RightLeg  5.81824 12.5602 -0.75614
RightFoot  -4.69815 -0.1361 1.75451
RightToes  -6.40286e-010 0 -3.6325e-017
Spine  11.3139 1.35201 0.375483
Spine1  -21.5908 1.3191 -1.3979
HEad  6.73504 -5.5116 -3.76283
LeftShoulder1  0.757117 -0.103449 -14.0441
LeftArm  -16.4113 6.84384 -3.96332
LeftForeArm  11.8975 -5.14092 -0.779861
LeftHand  -0.0202758 6.56227 0.974971
RightShoulder  0.584078 -0.339862 11.3831
RightArm  0.506364 -2.1219 -1.42038
RightForeArm  2.18274 2.99084 0.228616
RightHand  0.0626701 6.23463 0.277636
LeftUpLeg  -0.784112 6.38402 2.24472
LeftLeg  2.02996 0.996635 -0.0733987
LeftFoot  -0.910533 0.050493 -0.470882
LeftToes  1.32783e-010 1.73515e-011 1.59258e-011
3
root  84.0275 39.3729 1.77791 -100.46 -87.6612 100.338
RightUpLeg  -1.50034 -7.87255 -6.23989
RightLeg  6.02032 12.6012 -0.678114
RightFoot  -4.7375 -0.145691 1.90331
RightToes  -6.40286e-010 0 -3.6325e-017
Spine  11.374 1.32275 0.381223
Spine1  -21.7061 1.29051 -1.42225
HEad  6.84629 -5.78511 -3.83717
LeftShoulder1  0.762186 -0.15394 -13.8774
LeftArm  -16.536 6.78 -4.31854
LeftForeArm  13.3932 -4.94164 -0.71301
LeftHand  -0.0243521 6.74108 0.877626
RightShoulder  0.571558 -0.423849 11.4928
RightArm  0.583108 -2.10107 -1.46387
RightForeArm  2.43408 2.82823 0.232165
RightHand  0.0306539 4.96202 0.0450812
LeftUpLeg  -0.817063 6.31788 2.18218
LeftLeg  1.91188 0.945816 -0.0619289
LeftFoot  -0.775234 0.0466562 -0.411256
LeftToes  1.32783e-010 1.73515e-011 1.59258e-011
4
root  84.0439 39.3702 1.77657 -99.5301 -87.6947 99.4222
RightUpLeg  -1.57213 -7.92548 -6.23042
RightLeg  6.09792 12.6004 -0.603979
RightFoot  -4.70077 -0.135871 1.75096
RightToes  -6.40286e-010 0 -3.6325e-017
Spine  11.4473 1.25608 0.475552
Spine1  -21.7685 1.23182 -1.44093
HEad  6.80874 -5.92627 -3.90152
LeftShoulder1  0.746837 -0.089212 -13.8208
LeftArm  -16.4407 6.82926 -4.37113
LeftForeArm  14.1243 -4.89058 -0.758716
LeftHand  -0.0261731 6.81403 0.790206
RightShoulder  0.566658 -0.452626 11.5388
RightArm  0.495576 -1.97681 -1.40131
RightForeArm  3.11838 2.58626 0.173695
RightHand  0.0466594 5.46436 0.180505
LeftUpLeg  -0.896245 6.22461 2.16336
LeftLeg  1.97299 0.949391 0.0255871
LeftFoot  -0.812613 0.0491195 -0.449537
LeftToes  1.32783e-010 1.73515e-011 1.59258e-011
5
root  84.0482 39.3706 1.76944 -100.295 -87.6853 100.199
RightUpLeg  -1.58121 -7.87242 -6.20036
RightLeg  6.0531 12.592 -0.64846
RightFoot  -4.73361 -0.146493 1.91576
RightToes  -6.40286e-010 0 -3.6325e-017
Spine  11.454 1.23512 0.530328
Spine1  -21.7438 1.21469 -1.53602
HEad  6.76718 -6.00859 -3.74399
LeftShoulder1  0.754756 -0.142276 -13.723
LeftArm  -16.2413 7.12388 -4.21115
LeftForeArm  13.1843 -5.13576 -0.840664
LeftHand  -0.0245586 6.77897 0.839298
RightShoulder  0.56406 -0.461272 11.5572
RightArm  0.550134 -1.93399 -1.34977
RightForeArm  3.05611 2.49536 0.199237
RightHand  0.0560814 5.81322 0.253391
LeftUpLeg  -0.875161 6.26058 2.18599
LeftLeg  1.91123 0.961107 -0.00929954
LeftFoot  -0.781608 0.0492839 -0.452093
LeftToes  1.32783e-010 1.73515e-011 1.59258e-011
6
root  84.0537 39.3714 1.7674 -101.375 -87.6477 101.224
RightUpLeg  -1.56041 -7.91191 -6.23688
RightLeg  6.10214 12.6867 -0.626459
RightFoot  -4.71853 -0.143283 1.86596
RightToes  -6.40286e-010 0 -3.6325e-017
Spine  11.5368 1.24756 0.588661
Spine1  -21.7543 1.23047 -1.61087
HEad  6.78671 -5.99159 -3.77436
LeftShoulder1  0.756575 -0.164567 -13.6837
LeftArm  -16.2162 7.15392 -4.22043
LeftForeArm  13.6381 -5.11527 -0.852027
LeftHand  -0.025785 6.86603 0.81926
RightShoulder  0.562773 -0.511892 11.7209
RightArm  0.62234 -1.84769 -1.53398
RightForeArm  3.01126 2.49021 0.237888
RightHand  0.0578038 6.01023 0.254888
LeftUpLeg  -0.785055 6.25262 2.16557
LeftLeg  1.83302 1.02431 -0.012548
LeftFoot  -0.751879 0.0514666 -0.486013
LeftToes  1.32783e-010 1.73515e-011 1.59258e-011
7
root  84.055 39.3744 1.76634 -103.188 -87.6441 103.043
RightUpLeg  -1.55219 -7.8689 -6.19877
RightLeg  6.0387 12.6997 -0.663013
RightFoot  -4.67372 -0.145425 1.89918
RightToes  -6.40286e-010 0 -3.6325e-017
Spine  11.4457 1.29468 0.635485
Spine1  -21.6478 1.2797 -1.64797
HEad  6.89572 -6.03713 -3.92822
LeftShoulder1  0.758478 -0.18864 -13.6535
LeftArm  -16.2721 7.14273 -4.27117
LeftForeArm  13.6636 -5.0477 -0.811252
LeftHand  -0.0250815 6.84903 0.773037
RightShoulder  0.562253 -0.486654 11.7566
RightArm  0.593993 -1.86911 -1.63444
RightForeArm  3.0867 2.50302 0.215366
RightHand  0.0614338 6.14928 0.280706
LeftUpLeg  -0.741906 6.28968 2.19592
LeftLeg  1.76342 1.00277 -0.0298866
LeftFoot  -0.720244 0.051275 -0.483036
LeftToes  1.32783e-010 1.73515e-011 1.59258e-011
8
root  84.0592 39.3803 1.7632 -104.784 -87.6366 104.643
RightUpLeg  -1.54258 -7.84326 -6.16352
RightLeg  5.94255 12.651 -0.700959
RightFoot  -4.59378 -0.144292 1.88162
RightToes  -6.40286e-010 0 -3.6325e-017
Spine  11.407 1.34598 0.657843
Spine1  -21.5822 1.33076 -1.67899
HEad  7.02139 -6.42132 -4.01008
LeftShoulder1  0.760293 -0.164726 -13.5671
LeftArm  -16.2921 7.094 -4.37503
LeftForeArm  14.4883 -5.13853 -0.835588
LeftHand  -0.0267237 6.9437 0.710971
RightShoulder  0.562238 -0.504338 11.7302
RightArm  0.626909 -1.94555 -1.66084
RightForeArm  2.78624 2.62501 0.234826
RightHand  0.038133 5.90217 0.0614843
LeftUpLeg  -0.672647 6.38821 2.25385
LeftLeg  1.61589 0.990044 -0.116574
LeftFoot  -0.627711 0.0444434 -0.376867
LeftToes  1.32783e-010 1.73515e-011 1.59258e-011
9
root  84.0645 39.3743 1.7668 -103.749 -87.6145 103.582
RightUpLeg  -1.56095 -7.89642 -6.22128
RightLeg  6.04966 12.6395 -0.654761
RightFoot  -4.67599 -0.138359 1.78956
RightToes  -6.40286e-010 0 -3.6325e-017
Spine  11.4992 1.32556 0.598293
Spine1  -21.6663 1.30718 -1.60959
HEad  7.10077 -6.55223 -4.06172
LeftShoulder1  0.76179 -0.180049 -13.5425
LeftArm  -16.2662 7.12182 -4.38717
LeftForeArm  14.5152 -5.22036 -0.85928
LeftHand  -0.0275521 7.01036 0.695406
RightShoulder  0.56314 -0.47646 11.7406
RightArm  0.657414 -1.90961 -1.69052
RightForeArm  2.45174 2.61341 0.265163
RightHand  0.0167898 5.737 -0.148586
LeftUpLeg  -0.717566 6.2752 2.16465
LeftLeg  1.7483 1.06885 -0.0202335
LeftFoot  -0.688749 0.0476062 -0.42602
LeftToes  1.32783e-010 1.73515e-011 1.59258e-011
10
root  84.0679 39.3735 1.76553 -104.48 -87.6275 104.294
RightUpLeg  -1.48689 -7.89408 -6.19259
RightLeg  5.90357 12.6016 -0.666661
RightFoot  -4.61097 -0.132863 1.70429
RightToes  -6.40286e-010 0 -3.6325e-017
Spine  11.4683 1.34054 0.613047
Spine1  -21.5716 1.32369 -1.61786
HEad  7.18603 -6.75721 -4.17469
LeftShoulder1  0.762737 -0.203391 -13.4883
LeftArm  -16.3466 7.0316 -4.55618
LeftForeArm  15.2009 -5.13613 -0.828787
LeftHand  -0.0290912 7.09414 0.622097
RightShoulder  0.56481 -0.454508 11.7045
RightArm  0.557974 -1.9367 -1.68505
RightForeArm  2.60891 2.64809 0.218513
RightHand  0.0289505 5.45233 -0.0128005
LeftUpLeg  -0.730494 6.32291 2.21334
LeftLeg  1.81969 1.03311 -0.0372222
LeftFoot  -0.763461 0.0592047 -0.606271
LeftToes  1.32783e-010 1.73515e-011 1.59258e-011
11
root  84.0719 39.3819 1.76485 -104.409 -87.6225 104.218
RightUpLeg  -1.44586 -7.92717 -6.21993
RightLeg  5.80417 12.7243 -0.678522
RightFoot  -4.5197 -0.140674 1.82548
RightToes  -6.40286e-010 0 -3.6325e-017
Spine  11.4116 1.30864 0.677089
Spine1  -21.4555 1.29886 -1.71917
HEad  7.25481 -6.90191 -4.11804
LeftShoulder1  0.76279 -0.236583 -13.4273
LeftArm  -16.3156 7.00563 -4.56294
LeftForeArm  15.1384 -5.17085 -0.85801
LeftHand  -0.0293429 7.13891 0.638507
RightShoulder  0.566976 -0.429911 11.7369
RightArm  0.41942 -1.86878 -1.65053
RightForeArm  2.46905 2.5645 0.180157
RightHand  -0.000324608 5.05316 -0.311425
LeftUpLeg  -0.701035 6.31361 2.21337
LeftLeg  1.76908 0.98998 -0.0384607
LeftFoot  -0.630933 0.0566025 -0.565831
LeftToes  1.32783e-010 1.73515e-011 1.59258e-011
12
root  84.0845 39.3726 1.76724 -102.444 -87.6542 102.234
RightUpLeg  -1.46661 -7.92713 -6.21264
RightLeg  5.86384 12.6221 -0.66924
RightFoot  -4.56622 -0.137761 1.78028
RightToes  -6.40286e-010 0 -3.6325e-017
Spine  11.5859 1.28661 0.629826
Spine1  -21.6199 1.2729 -1.5986
HEad  7.25908 -6.8155 -4.26347
LeftShoulder1  0.760686 -0.230718 -13.4901
LeftArm  -16.3208 6.9143 -4.51561
LeftForeArm  14.5922 -5.24742 -0.879557
LeftHand  -0.0275144 7.10351 0.727992
RightShoulder  0.569215 -0.43728 11.7627
RightArm  0.474146 -1.83913 -1.78581
RightForeArm  2.76609 2.57941 0.188285
RightHand  0.0320044 5.4632 0.0240076
LeftUpLeg  -0.759091 6.27919 2.17996
LeftLeg  1.8191 1.03003 -0.00450465
LeftFoot  -0.674377 0.0465541 -0.409668
LeftToes  1.32783e-010 1.73515e-011 1.59258e-011
13
root  84.0871 39.3658 1.76681 -102.258 -87.5982 102.015
RightUpLeg  -1.4015 -7.94928 -6.27194
RightLeg  5.78213 12.6675 -0.692528
RightFoot  -4.65128 -0.132826 1.70371
RightToes  -6.40286e-010 0 -3.6325e-017
Spine  11.6184 1.29238 0.535017
Spine1  -21.5741 1.27342 -1.56579
HEad  7.19598 -6.86225 -4.2542
LeftShoulder1  0.760264 -0.209064 -13.4719
LeftArm  -16.4901 6.80759 -4.63646
LeftForeArm  14.6176 -5.22489 -0.802182
LeftHand  -0.0268922 7.10074 0.732617
RightShoulder  0.571196 -0.467905 11.8208
RightArm  0.495693 -1.69949 -1.80125
RightForeArm  2.39811 2.5258 0.232525
RightHand  -0.00815234 5.20114 -0.39767
LeftUpLeg  -0.78105 6.24529 2.12288
LeftLeg  1.93861 0.996939 0.0120278
LeftFoot  -0.762182 0.0493296 -0.452802
LeftToes  1.32783e-010 1.73515e-011 1.59258e-011
